<svg width="96" height="198" viewBox="0 0 96 198" fill="none" xmlns="http://www.w3.org/2000/svg">
<g clip-path="url(#clip0_3_1484)">
<path fill-rule="evenodd" clip-rule="evenodd" d="M0 0H88C92.4183 0 96 3.58172 96 8V198H0V0Z" fill="#1DAD66"/>
<path d="M57.54 85.74C57.9992 86.0007 58.543 86.0693 59.0525 85.9306C59.5621 85.792 59.9962 85.4575 60.26 85C60.4362 84.6948 60.6899 84.4416 60.9955 84.266C61.301 84.0903 61.6476 83.9986 62 84C62.5304 84 63.0391 84.2107 63.4142 84.5858C63.7893 84.9609 64 85.4696 64 86C64 86.5304 63.7893 87.0391 63.4142 87.4142C63.0391 87.7893 62.5304 88 62 88C61.4696 88 60.9609 88.2107 60.5858 88.5858C60.2107 88.9609 60 89.4696 60 90C60 90.5304 60.2107 91.0391 60.5858 91.4142C60.9609 91.7893 61.4696 92 62 92C63.0531 91.9993 64.0874 91.7215 64.9991 91.1945C65.9107 90.6674 66.6677 89.9097 67.1937 88.9975C67.7198 88.0853 67.9966 87.0507 67.9962 85.9976C67.9957 84.9445 67.7182 83.9101 67.1913 82.9983C66.6645 82.0865 65.907 81.3294 64.9949 80.8031C64.0828 80.2768 63.0482 79.9998 61.9952 80C60.9421 80.0002 59.9077 80.2775 58.9957 80.8041C58.0838 81.3307 57.3265 82.088 56.8 83C56.6678 83.2283 56.582 83.4804 56.5476 83.742C56.5133 84.0036 56.531 84.2693 56.5998 84.524C56.6685 84.7787 56.787 85.0172 56.9484 85.2259C57.1098 85.4346 57.3108 85.6093 57.54 85.74ZM66 102C65.4696 102 64.9609 102.211 64.5858 102.586C64.2107 102.961 64 103.47 64 104V112C64 112.53 63.7893 113.039 63.4142 113.414C63.0391 113.789 62.5304 114 62 114H34C33.4696 114 32.9609 113.789 32.5858 113.414C32.2107 113.039 32 112.53 32 112V92.82L43.76 104.6C44.885 105.724 46.41 106.355 48 106.355C49.59 106.355 51.115 105.724 52.24 104.6L55.52 101.32C55.7065 101.134 55.8544 100.912 55.9553 100.668C56.0562 100.425 56.1082 100.164 56.1082 99.9C56.1082 99.6363 56.0562 99.3751 55.9553 99.1315C55.8544 98.8879 55.7065 98.6665 55.52 98.48C55.3335 98.2935 55.1121 98.1456 54.8685 98.0447C54.6249 97.9438 54.3637 97.8918 54.1 97.8918C53.8363 97.8918 53.5751 97.9438 53.3315 98.0447C53.0879 98.1456 52.8665 98.2935 52.68 98.48L49.4 101.76C49.0261 102.126 48.5235 102.332 48 102.332C47.4765 102.332 46.9739 102.126 46.6 101.76L34.82 90H50C50.5304 90 51.0391 89.7893 51.4142 89.4142C51.7893 89.0391 52 88.5304 52 88C52 87.4696 51.7893 86.9609 51.4142 86.5858C51.0391 86.2107 50.5304 86 50 86H34C32.4087 86 30.8826 86.6321 29.7574 87.7574C28.6321 88.8826 28 90.4087 28 92V112C28 113.591 28.6321 115.117 29.7574 116.243C30.8826 117.368 32.4087 118 34 118H62C63.5913 118 65.1174 117.368 66.2426 116.243C67.3679 115.117 68 113.591 68 112V104C68 103.47 67.7893 102.961 67.4142 102.586C67.0391 102.211 66.5304 102 66 102ZM60.58 94.58C60.3925 94.7659 60.2438 94.9871 60.1422 95.2308C60.0407 95.4746 59.9884 95.736 59.9884 96C59.9884 96.264 60.0407 96.5254 60.1422 96.7692C60.2438 97.0129 60.3925 97.2341 60.58 97.42L60.88 97.66C60.9915 97.7357 61.1126 97.7962 61.24 97.84C61.3534 97.8977 61.4747 97.9381 61.6 97.96H62C62.3972 97.9623 62.7862 97.8463 63.1172 97.6267C63.4483 97.4071 63.7064 97.0938 63.8587 96.727C64.0111 96.3601 64.0507 95.9561 63.9726 95.5666C63.8944 95.1771 63.7021 94.8197 63.42 94.54C63.2314 94.3551 63.0082 94.2094 62.763 94.1113C62.5179 94.0132 62.2557 93.9646 61.9917 93.9683C61.7276 93.972 61.467 94.028 61.2247 94.133C60.9824 94.238 60.7633 94.3899 60.58 94.58Z" fill="white"/>
</g>
<defs>
<clipPath id="clip0_3_1484">
<rect width="96" height="198" fill="white"/>
</clipPath>
</defs>
</svg>
