<svg width="115" height="23" viewBox="0 0 115 23" fill="none" xmlns="http://www.w3.org/2000/svg">
<g clip-path="url(#clip0_3_914)">
<path d="M10.3283 2.06156C10.7382 1.07583 12.1362 1.07583 12.5474 2.06156L14.9516 7.83407L21.1905 8.33294C22.258 8.41709 22.6895 9.74902 21.8757 10.445L17.125 14.507L18.5771 20.5836C18.826 21.6234 17.696 22.4457 16.7824 21.8891L11.4378 18.6326L6.09206 21.8903C5.17846 22.4469 4.04848 21.6246 4.29732 20.5848L5.74946 14.5082L0.99754 10.4438C0.184917 9.74902 0.616472 8.4195 1.68274 8.33415L7.92167 7.83527L10.3283 2.06156Z" fill="#0EA85B"/>
</g>
<g clip-path="url(#clip1_3_914)">
<path d="M33.1726 2.06156C33.5827 1.07583 34.9814 1.07583 35.3927 2.06156L37.798 7.83407L44.0396 8.33294C45.1076 8.41709 45.5393 9.74902 44.7251 10.445L39.9723 14.507L41.4251 20.5836C41.674 21.6234 40.5436 22.4457 39.6296 21.8891L34.2827 18.6326L28.9346 21.8903C28.0206 22.4469 26.8901 21.6246 27.139 20.5848L28.5918 14.5082L23.8378 10.4438C23.0248 9.74902 23.4566 8.4195 24.5233 8.33415L30.765 7.83527L33.1726 2.06156Z" fill="#0EA85B"/>
</g>
<g clip-path="url(#clip2_3_914)">
<path d="M56.0187 2.06156C56.4286 1.07583 57.8267 1.07583 58.2378 2.06156L60.642 7.83407L66.8809 8.33294C67.9484 8.41709 68.38 9.74902 67.5661 10.445L62.8154 14.507L64.2676 20.5836C64.5164 21.6234 63.3864 22.4457 62.4728 21.8891L57.1283 18.6326L51.7825 21.8903C50.8689 22.4469 49.7389 21.6246 49.9877 20.5848L51.4399 14.5082L46.688 10.4438C45.8753 9.74902 46.3069 8.4195 47.3732 8.33415L53.6121 7.83527L56.0187 2.06156Z" fill="#0EA85B"/>
</g>
<g clip-path="url(#clip3_3_914)">
<path d="M78.8631 2.06156C79.2732 1.07583 80.6718 1.07583 81.0831 2.06156L83.4884 7.83407L89.7301 8.33294C90.798 8.41709 91.2297 9.74902 90.4156 10.445L85.6627 14.507L87.1155 20.5836C87.3645 21.6234 86.234 22.4457 85.32 21.8891L79.9731 18.6326L74.625 21.8903C73.711 22.4469 72.5805 21.6246 72.8295 20.5848L74.2822 14.5082L69.5282 10.4438C68.7153 9.74902 69.147 8.4195 70.2137 8.33415L76.4554 7.83527L78.8631 2.06156Z" fill="#0EA85B"/>
</g>
<g clip-path="url(#clip4_3_914)">
<path d="M101.709 2.06156C102.119 1.07583 103.517 1.07583 103.928 2.06156L106.332 7.83407L112.571 8.33294C113.638 8.41709 114.07 9.74902 113.256 10.445L108.505 14.507L109.957 20.5836C110.206 21.6234 109.076 22.4457 108.163 21.8891L102.818 18.6326L97.4724 21.8903C96.5588 22.4469 95.4289 21.6246 95.6777 20.5848L97.1298 14.5082L92.3779 10.4438C91.5653 9.74902 91.9968 8.4195 93.0631 8.33415L99.302 7.83527L101.709 2.06156Z" fill="#0EA85B"/>
</g>
<defs>
<clipPath id="clip0_3_914">
<rect width="22.84" height="22.84" fill="white"/>
</clipPath>
<clipPath id="clip1_3_914">
<rect width="22.85" height="22.84" fill="white" transform="translate(22.8401)"/>
</clipPath>
<clipPath id="clip2_3_914">
<rect width="22.84" height="22.84" fill="white" transform="translate(45.6899)"/>
</clipPath>
<clipPath id="clip3_3_914">
<rect width="22.85" height="22.84" fill="white" transform="translate(68.53)"/>
</clipPath>
<clipPath id="clip4_3_914">
<rect width="22.84" height="22.84" fill="white" transform="translate(91.3799)"/>
</clipPath>
</defs>
</svg>
