<svg width="115" height="24" viewBox="0 0 115 24" fill="none" xmlns="http://www.w3.org/2000/svg">
<g clip-path="url(#clip0_3_613)">
<path d="M10.3288 2.64158C10.7387 1.65585 12.1367 1.65585 12.5479 2.64158L14.9521 8.41409L21.191 8.91296C22.2585 8.99711 22.69 10.329 21.8762 11.0251L17.1255 15.087L18.5776 21.1636C18.8265 22.2034 17.6965 23.0257 16.7829 22.4691L11.4383 19.2126L6.09255 22.4703C5.17895 23.0269 4.04897 22.2046 4.29781 21.1648L5.74995 15.0882L0.998028 11.0239C0.185405 10.329 0.616961 8.99951 1.68323 8.91416L7.92215 8.41529L10.3288 2.64158Z" fill="#2D49E4"/>
</g>
<g clip-path="url(#clip1_3_613)">
<path d="M33.1686 2.64158C33.5785 1.65585 34.9766 1.65585 35.3877 2.64158L37.7919 8.41409L44.0308 8.91296C45.0983 8.99711 45.5299 10.329 44.716 11.0251L39.9653 15.087L41.4175 21.1636C41.6663 22.2034 40.5363 23.0257 39.6227 22.4691L34.2782 19.2126L28.9324 22.4703C28.0188 23.0269 26.8888 22.2046 27.1377 21.1648L28.5898 15.0882L23.8379 11.0239C23.0252 10.329 23.4568 8.99951 24.5231 8.91416L30.762 8.41529L33.1686 2.64158Z" fill="#2D49E4"/>
</g>
<g clip-path="url(#clip2_3_613)">
<path d="M56.0089 2.64158C56.4189 1.65585 57.8169 1.65585 58.228 2.64158L60.6322 8.41409L66.8712 8.91296C67.9386 8.99711 68.3702 10.329 67.5564 11.0251L62.8056 15.087L64.2578 21.1636C64.5066 22.2034 63.3766 23.0257 62.463 22.4691L57.1185 19.2126L51.7727 22.4703C50.8591 23.0269 49.7291 22.2046 49.978 21.1648L51.4301 15.0882L46.6782 11.0239C45.8656 10.329 46.2971 8.99951 47.3634 8.91416L53.6023 8.41529L56.0089 2.64158Z" fill="#2D49E4"/>
</g>
<g clip-path="url(#clip3_3_613)">
<path d="M78.8488 2.64158C79.2587 1.65585 80.6568 1.65585 81.0679 2.64158L83.4721 8.41409L89.711 8.91296C90.7785 8.99711 91.21 10.329 90.3962 11.0251L85.6455 15.087L87.0976 21.1636C87.3465 22.2034 86.2165 23.0257 85.3029 22.4691L79.9583 19.2126L74.6126 22.4703C73.699 23.0269 72.569 22.2046 72.8178 21.1648L74.27 15.0882L69.518 11.0239C68.7054 10.329 69.137 8.99951 70.2032 8.91416L76.4422 8.41529L78.8488 2.64158Z" fill="#2D49E4"/>
</g>
<g clip-path="url(#clip4_3_613)">
<path d="M101.689 2.64158C102.099 1.65585 103.497 1.65585 103.908 2.64158L106.312 8.41409L112.551 8.91296C113.618 8.99711 114.05 10.329 113.236 11.0251L108.485 15.087L109.937 21.1636C110.186 22.2034 109.056 23.0257 108.143 22.4691L102.798 19.2126L97.4524 22.4703C96.5388 23.0269 95.4088 22.2046 95.6577 21.1648L97.1098 15.0882L92.3579 11.0239C91.5453 10.329 91.9768 8.99951 93.0431 8.91416L99.282 8.41529L101.689 2.64158Z" fill="black" fill-opacity="0.26"/>
</g>
<g clip-path="url(#clip5_3_613)">
<g clip-path="url(#clip6_3_613)">
<path d="M101.689 2.64158C102.099 1.65585 103.497 1.65585 103.908 2.64158L106.312 8.41409L112.551 8.91296C113.618 8.99711 114.05 10.329 113.236 11.0251L108.485 15.087L109.937 21.1636C110.186 22.2034 109.056 23.0257 108.143 22.4691L102.798 19.2126L97.4524 22.4703C96.5388 23.0269 95.4088 22.2046 95.6577 21.1648L97.1098 15.0882L92.3579 11.0239C91.5453 10.329 91.9768 8.99951 93.0431 8.91416L99.282 8.41529L101.689 2.64158Z" fill="#2D49E4"/>
</g>
</g>
<defs>
<clipPath id="clip0_3_613">
<rect width="22.84" height="22.84" fill="white" transform="translate(0 0.580017)"/>
</clipPath>
<clipPath id="clip1_3_613">
<rect width="22.84" height="22.84" fill="white" transform="translate(22.8398 0.580017)"/>
</clipPath>
<clipPath id="clip2_3_613">
<rect width="22.84" height="22.84" fill="white" transform="translate(45.6802 0.580017)"/>
</clipPath>
<clipPath id="clip3_3_613">
<rect width="22.84" height="22.84" fill="white" transform="translate(68.52 0.580017)"/>
</clipPath>
<clipPath id="clip4_3_613">
<rect width="22.84" height="22.84" fill="white" transform="translate(91.3599 0.580017)"/>
</clipPath>
<clipPath id="clip5_3_613">
<rect width="11.42" height="22.84" fill="white" transform="translate(91.3599 0.580017)"/>
</clipPath>
<clipPath id="clip6_3_613">
<rect width="22.84" height="22.84" fill="white" transform="translate(91.3599 0.580017)"/>
</clipPath>
</defs>
</svg>
