<svg width="115" height="24" viewBox="0 0 115 24" fill="none" xmlns="http://www.w3.org/2000/svg">
<g clip-path="url(#clip0_3_931)">
<path d="M10.3288 2.64164C10.7387 1.65591 12.1367 1.65591 12.5479 2.64164L14.9521 8.41415L21.191 8.91302C22.2585 8.99717 22.69 10.3291 21.8762 11.0251L17.1255 15.087L18.5776 21.1637C18.8265 22.2035 17.6965 23.0257 16.7829 22.4692L11.4383 19.2127L6.09255 22.4704C5.17895 23.0269 4.04897 22.2047 4.29781 21.1649L5.74995 15.0882L0.998028 11.0239C0.185405 10.3291 0.616961 8.99957 1.68323 8.91422L7.92215 8.41535L10.3288 2.64164Z" fill="#2D49E4"/>
</g>
<g clip-path="url(#clip1_3_931)">
<path d="M33.1686 2.64164C33.5785 1.65591 34.9766 1.65591 35.3877 2.64164L37.7919 8.41415L44.0308 8.91302C45.0983 8.99717 45.5299 10.3291 44.716 11.0251L39.9653 15.087L41.4175 21.1637C41.6663 22.2035 40.5363 23.0257 39.6227 22.4692L34.2782 19.2127L28.9324 22.4704C28.0188 23.0269 26.8888 22.2047 27.1377 21.1649L28.5898 15.0882L23.8379 11.0239C23.0252 10.3291 23.4568 8.99957 24.5231 8.91422L30.762 8.41535L33.1686 2.64164Z" fill="#2D49E4"/>
</g>
<g clip-path="url(#clip2_3_931)">
<path d="M56.0089 2.64164C56.4189 1.65591 57.8169 1.65591 58.228 2.64164L60.6322 8.41415L66.8712 8.91302C67.9386 8.99717 68.3702 10.3291 67.5564 11.0251L62.8056 15.087L64.2578 21.1637C64.5066 22.2035 63.3766 23.0257 62.463 22.4692L57.1185 19.2127L51.7727 22.4704C50.8591 23.0269 49.7291 22.2047 49.978 21.1649L51.4301 15.0882L46.6782 11.0239C45.8656 10.3291 46.2971 8.99957 47.3634 8.91422L53.6023 8.41535L56.0089 2.64164Z" fill="#2D49E4"/>
</g>
<g clip-path="url(#clip3_3_931)">
<path d="M78.8488 2.64164C79.2587 1.65591 80.6568 1.65591 81.0679 2.64164L83.4721 8.41415L89.711 8.91302C90.7785 8.99717 91.21 10.3291 90.3962 11.0251L85.6455 15.087L87.0976 21.1637C87.3465 22.2035 86.2165 23.0257 85.3029 22.4692L79.9583 19.2127L74.6126 22.4704C73.699 23.0269 72.569 22.2047 72.8178 21.1649L74.27 15.0882L69.518 11.0239C68.7054 10.3291 69.137 8.99957 70.2032 8.91422L76.4422 8.41535L78.8488 2.64164Z" fill="#2D49E4"/>
</g>
<g clip-path="url(#clip4_3_931)">
<path d="M101.689 2.64164C102.099 1.65591 103.497 1.65591 103.908 2.64164L106.312 8.41415L112.551 8.91302C113.618 8.99717 114.05 10.3291 113.236 11.0251L108.485 15.087L109.937 21.1637C110.186 22.2035 109.056 23.0257 108.143 22.4692L102.798 19.2127L97.4524 22.4704C96.5388 23.0269 95.4088 22.2047 95.6577 21.1649L97.1098 15.0882L92.3579 11.0239C91.5453 10.3291 91.9768 8.99957 93.0431 8.91422L99.282 8.41535L101.689 2.64164Z" fill="black" fill-opacity="0.26"/>
</g>
<g clip-path="url(#clip5_3_931)">
<g clip-path="url(#clip6_3_931)">
<path d="M101.689 2.64164C102.099 1.65591 103.497 1.65591 103.908 2.64164L106.312 8.41415L112.551 8.91302C113.618 8.99717 114.05 10.3291 113.236 11.0251L108.485 15.087L109.937 21.1637C110.186 22.2035 109.056 23.0257 108.143 22.4692L102.798 19.2127L97.4524 22.4704C96.5388 23.0269 95.4088 22.2047 95.6577 21.1649L97.1098 15.0882L92.3579 11.0239C91.5453 10.3291 91.9768 8.99957 93.0431 8.91422L99.282 8.41535L101.689 2.64164Z" fill="#2D49E4"/>
</g>
</g>
<defs>
<clipPath id="clip0_3_931">
<rect width="22.84" height="22.84" fill="white" transform="translate(0 0.580078)"/>
</clipPath>
<clipPath id="clip1_3_931">
<rect width="22.84" height="22.84" fill="white" transform="translate(22.8398 0.580078)"/>
</clipPath>
<clipPath id="clip2_3_931">
<rect width="22.84" height="22.84" fill="white" transform="translate(45.6802 0.580078)"/>
</clipPath>
<clipPath id="clip3_3_931">
<rect width="22.84" height="22.84" fill="white" transform="translate(68.52 0.580078)"/>
</clipPath>
<clipPath id="clip4_3_931">
<rect width="22.84" height="22.84" fill="white" transform="translate(91.3599 0.580078)"/>
</clipPath>
<clipPath id="clip5_3_931">
<rect width="11.42" height="22.84" fill="white" transform="translate(91.3599 0.580078)"/>
</clipPath>
<clipPath id="clip6_3_931">
<rect width="22.84" height="22.84" fill="white" transform="translate(91.3599 0.580078)"/>
</clipPath>
</defs>
</svg>
