<svg width="115" height="23" viewBox="0 0 115 23" fill="none" xmlns="http://www.w3.org/2000/svg">
<g clip-path="url(#clip0_3_183)">
<path d="M10.3283 2.06156C10.7382 1.07583 12.1362 1.07583 12.5474 2.06156L14.9516 7.83407L21.1905 8.33294C22.258 8.41709 22.6895 9.74902 21.8757 10.445L17.125 14.507L18.5771 20.5836C18.826 21.6234 17.696 22.4457 16.7824 21.8891L11.4378 18.6326L6.09206 21.8903C5.17846 22.4469 4.04848 21.6246 4.29732 20.5848L5.74946 14.5082L0.99754 10.4438C0.184917 9.74902 0.616472 8.4195 1.68274 8.33415L7.92167 7.83527L10.3283 2.06156Z" fill="#0EA85B"/>
</g>
<g clip-path="url(#clip1_3_183)">
<path d="M33.1724 2.06156C33.5825 1.07583 34.9812 1.07583 35.3925 2.06156L37.7977 7.83407L44.0394 8.33294C45.1073 8.41709 45.5391 9.74902 44.7249 10.445L39.9721 14.507L41.4249 20.5836C41.6738 21.6234 40.5433 22.4457 39.6293 21.8891L34.2824 18.6326L28.9343 21.8903C28.0203 22.4469 26.8898 21.6246 27.1388 20.5848L28.5916 14.5082L23.8376 10.4438C23.0246 9.74902 23.4563 8.4195 24.5231 8.33415L30.7647 7.83527L33.1724 2.06156Z" fill="#0EA85B"/>
</g>
<g clip-path="url(#clip2_3_183)">
<path d="M56.0182 2.06156C56.4281 1.07583 57.8262 1.07583 58.2373 2.06156L60.6415 7.83407L66.8804 8.33294C67.9479 8.41709 68.3795 9.74902 67.5656 10.445L62.8149 14.507L64.2671 20.5836C64.5159 21.6234 63.3859 22.4457 62.4723 21.8891L57.1278 18.6326L51.782 21.8903C50.8684 22.4469 49.7384 21.6246 49.9873 20.5848L51.4394 14.5082L46.6875 10.4438C45.8749 9.74902 46.3064 8.4195 47.3727 8.33415L53.6116 7.83527L56.0182 2.06156Z" fill="#0EA85B"/>
</g>
<g clip-path="url(#clip3_3_183)">
<path d="M78.8623 2.06156C79.2724 1.07583 80.6711 1.07583 81.0824 2.06156L83.4877 7.83407L89.7293 8.33294C90.7973 8.41709 91.229 9.74902 90.4148 10.445L85.662 14.507L87.1148 20.5836C87.3637 21.6234 86.2333 22.4457 85.3193 21.8891L79.9724 18.6326L74.6243 21.8903C73.7103 22.4469 72.5798 21.6246 72.8287 20.5848L74.2815 14.5082L69.5275 10.4438C68.7145 9.74902 69.1463 8.4195 70.213 8.33415L76.4547 7.83527L78.8623 2.06156Z" fill="#0EA85B"/>
</g>
<g clip-path="url(#clip4_3_183)">
<path d="M101.708 2.06156C102.118 1.07583 103.516 1.07583 103.927 2.06156L106.331 7.83407L112.57 8.33294C113.638 8.41709 114.069 9.74902 113.256 10.445L108.505 14.507L109.957 20.5836C110.206 21.6234 109.076 22.4457 108.162 21.8891L102.818 18.6326L97.4719 21.8903C96.5583 22.4469 95.4284 21.6246 95.6772 20.5848L97.1293 14.5082L92.3774 10.4438C91.5648 9.74902 91.9964 8.4195 93.0626 8.33415L99.3015 7.83527L101.708 2.06156Z" fill="#0EA85B"/>
</g>
<defs>
<clipPath id="clip0_3_183">
<rect width="22.84" height="22.84" fill="white"/>
</clipPath>
<clipPath id="clip1_3_183">
<rect width="22.85" height="22.84" fill="white" transform="translate(22.8398)"/>
</clipPath>
<clipPath id="clip2_3_183">
<rect width="22.84" height="22.84" fill="white" transform="translate(45.6899)"/>
</clipPath>
<clipPath id="clip3_3_183">
<rect width="22.85" height="22.84" fill="white" transform="translate(68.5298)"/>
</clipPath>
<clipPath id="clip4_3_183">
<rect width="22.84" height="22.84" fill="white" transform="translate(91.3799)"/>
</clipPath>
</defs>
</svg>
