<svg width="115" height="24" viewBox="0 0 115 24" fill="none" xmlns="http://www.w3.org/2000/svg">
<g clip-path="url(#clip0_3_142)">
<path d="M10.3288 2.64152C10.7387 1.65579 12.1367 1.65579 12.5479 2.64152L14.9521 8.41403L21.191 8.9129C22.2585 8.99705 22.69 10.329 21.8762 11.025L17.1255 15.0869L18.5776 21.1636C18.8265 22.2034 17.6965 23.0256 16.7829 22.469L11.4383 19.2125L6.09255 22.4702C5.17895 23.0268 4.04897 22.2046 4.29781 21.1648L5.74995 15.0881L0.998028 11.0238C0.185405 10.329 0.616961 8.99945 1.68323 8.9141L7.92215 8.41523L10.3288 2.64152Z" fill="#2D49E4"/>
</g>
<g clip-path="url(#clip1_3_142)">
<path d="M33.1686 2.64152C33.5785 1.65579 34.9766 1.65579 35.3877 2.64152L37.7919 8.41403L44.0308 8.9129C45.0983 8.99705 45.5299 10.329 44.716 11.025L39.9653 15.0869L41.4175 21.1636C41.6663 22.2034 40.5363 23.0256 39.6227 22.469L34.2782 19.2125L28.9324 22.4702C28.0188 23.0268 26.8888 22.2046 27.1377 21.1648L28.5898 15.0881L23.8379 11.0238C23.0252 10.329 23.4568 8.99945 24.5231 8.9141L30.762 8.41523L33.1686 2.64152Z" fill="#2D49E4"/>
</g>
<g clip-path="url(#clip2_3_142)">
<path d="M56.0089 2.64152C56.4189 1.65579 57.8169 1.65579 58.228 2.64152L60.6322 8.41403L66.8712 8.9129C67.9386 8.99705 68.3702 10.329 67.5564 11.025L62.8056 15.0869L64.2578 21.1636C64.5066 22.2034 63.3766 23.0256 62.463 22.469L57.1185 19.2125L51.7727 22.4702C50.8591 23.0268 49.7291 22.2046 49.978 21.1648L51.4301 15.0881L46.6782 11.0238C45.8656 10.329 46.2971 8.99945 47.3634 8.9141L53.6023 8.41523L56.0089 2.64152Z" fill="#2D49E4"/>
</g>
<g clip-path="url(#clip3_3_142)">
<path d="M78.8488 2.64152C79.2587 1.65579 80.6568 1.65579 81.0679 2.64152L83.4721 8.41403L89.711 8.9129C90.7785 8.99705 91.21 10.329 90.3962 11.025L85.6455 15.0869L87.0976 21.1636C87.3465 22.2034 86.2165 23.0256 85.3029 22.469L79.9583 19.2125L74.6126 22.4702C73.699 23.0268 72.569 22.2046 72.8178 21.1648L74.27 15.0881L69.518 11.0238C68.7054 10.329 69.137 8.99945 70.2032 8.9141L76.4422 8.41523L78.8488 2.64152Z" fill="#2D49E4"/>
</g>
<g clip-path="url(#clip4_3_142)">
<path d="M101.689 2.64152C102.099 1.65579 103.497 1.65579 103.908 2.64152L106.312 8.41403L112.551 8.9129C113.618 8.99705 114.05 10.329 113.236 11.025L108.485 15.0869L109.937 21.1636C110.186 22.2034 109.056 23.0256 108.143 22.469L102.798 19.2125L97.4524 22.4702C96.5388 23.0268 95.4088 22.2046 95.6577 21.1648L97.1098 15.0881L92.3579 11.0238C91.5453 10.329 91.9768 8.99945 93.0431 8.9141L99.282 8.41523L101.689 2.64152Z" fill="black" fill-opacity="0.26"/>
</g>
<g clip-path="url(#clip5_3_142)">
<g clip-path="url(#clip6_3_142)">
<path d="M101.689 2.64152C102.099 1.65579 103.497 1.65579 103.908 2.64152L106.312 8.41403L112.551 8.9129C113.618 8.99705 114.05 10.329 113.236 11.025L108.485 15.0869L109.937 21.1636C110.186 22.2034 109.056 23.0256 108.143 22.469L102.798 19.2125L97.4524 22.4702C96.5388 23.0268 95.4088 22.2046 95.6577 21.1648L97.1098 15.0881L92.3579 11.0238C91.5453 10.329 91.9768 8.99945 93.0431 8.9141L99.282 8.41523L101.689 2.64152Z" fill="#2D49E4"/>
</g>
</g>
<defs>
<clipPath id="clip0_3_142">
<rect width="22.84" height="22.84" fill="white" transform="translate(0 0.579956)"/>
</clipPath>
<clipPath id="clip1_3_142">
<rect width="22.84" height="22.84" fill="white" transform="translate(22.8398 0.579956)"/>
</clipPath>
<clipPath id="clip2_3_142">
<rect width="22.84" height="22.84" fill="white" transform="translate(45.6802 0.579956)"/>
</clipPath>
<clipPath id="clip3_3_142">
<rect width="22.84" height="22.84" fill="white" transform="translate(68.52 0.579956)"/>
</clipPath>
<clipPath id="clip4_3_142">
<rect width="22.84" height="22.84" fill="white" transform="translate(91.3599 0.579956)"/>
</clipPath>
<clipPath id="clip5_3_142">
<rect width="11.42" height="22.84" fill="white" transform="translate(91.3599 0.579956)"/>
</clipPath>
<clipPath id="clip6_3_142">
<rect width="22.84" height="22.84" fill="white" transform="translate(91.3599 0.579956)"/>
</clipPath>
</defs>
</svg>
