<svg width="15" height="24" viewBox="0 0 15 24" fill="none" xmlns="http://www.w3.org/2000/svg">
<path d="M12.8844 9.4522L12.3363 8.90027C12.3039 8.8658 12.2647 8.83834 12.2212 8.81958C12.1777 8.80081 12.1309 8.79113 12.0835 8.79113C12.0362 8.79113 11.9893 8.80081 11.9458 8.81958C11.9024 8.83834 11.8632 8.8658 11.8307 8.90027L7.50019 13.2308L3.16966 8.90027C3.13714 8.86519 3.09773 8.83721 3.0539 8.81807C3.01006 8.79894 2.96275 8.78906 2.91492 8.78906C2.86709 8.78906 2.81978 8.79894 2.77595 8.81807C2.73211 8.83721 2.6927 8.86519 2.66019 8.90027L2.11597 9.4522C2.08151 9.48467 2.05405 9.52385 2.03529 9.56732C2.01652 9.6108 2.00684 9.65765 2.00684 9.705C2.00684 9.75236 2.01652 9.79921 2.03529 9.84268C2.05405 9.88616 2.08151 9.92533 2.11597 9.95781L7.24931 15.0911C7.28178 15.1256 7.32096 15.1531 7.36444 15.1718C7.40791 15.1906 7.45476 15.2003 7.50212 15.2003C7.54947 15.2003 7.59632 15.1906 7.63979 15.1718C7.68327 15.1531 7.72245 15.1256 7.75492 15.0911L12.8883 9.95781C12.9221 9.92538 12.9491 9.88644 12.9675 9.84332C12.9859 9.80021 12.9954 9.75381 12.9954 9.70693C12.9954 9.66005 12.9859 9.61366 12.9675 9.57054C12.9491 9.52742 12.9221 9.48848 12.8883 9.45606L12.8844 9.4522Z" fill="#666666"/>
</svg>
