<svg width="28" height="28" viewBox="0 0 28 28" fill="none" xmlns="http://www.w3.org/2000/svg">
<g clip-path="url(#clip0_3_240)">
<path d="M27.5001 13.71C27.5001 6.13818 21.3619 0 13.7901 0C6.21825 0 0.0800781 6.13818 0.0800781 13.71C0.0800781 21.2818 6.21825 27.42 13.7901 27.42C21.3619 27.42 27.5001 21.2818 27.5001 13.71Z" fill="#1DAD66"/>
<path fill-rule="evenodd" clip-rule="evenodd" d="M21.1728 7.9598C21.5727 8.32312 21.6138 8.95378 21.2642 9.36965L12.828 19.3665C12.747 19.4644 12.647 19.5449 12.534 19.6031C12.421 19.6613 12.2974 19.6959 12.1707 19.705C12.0439 19.7141 11.9166 19.6974 11.7965 19.6559C11.6764 19.6144 11.5659 19.549 11.4718 19.4636L6.41054 14.9199C6.21675 14.7421 6.09862 14.4967 6.08055 14.2344C6.06248 13.972 6.14584 13.7127 6.31343 13.5101C6.39413 13.4113 6.49408 13.33 6.60719 13.2711C6.7203 13.2122 6.84422 13.1769 6.97139 13.1674C7.09857 13.1579 7.22636 13.1743 7.34697 13.2158C7.46759 13.2572 7.57852 13.3227 7.67301 13.4084L12.0088 17.302L19.8121 8.05349C19.8933 7.9553 19.9937 7.87466 20.1071 7.81647C20.2205 7.75828 20.3446 7.72376 20.4718 7.71499C20.5989 7.70623 20.7265 7.72341 20.8469 7.7655C20.9672 7.80758 21.0788 7.87369 21.1728 7.9598Z" fill="white"/>
</g>
<defs>
<clipPath id="clip0_3_240">
<rect width="27.42" height="27.42" fill="white" transform="translate(0.0800781)"/>
</clipPath>
</defs>
</svg>
