<svg width="48" height="48" viewBox="0 0 48 48" fill="none" xmlns="http://www.w3.org/2000/svg">
<g clip-path="url(#clip0_3_1515)">
<path d="M37.3053 7.75H37.305L10.695 7.75L10.6947 7.75C8.85302 7.75222 7.08775 8.48913 5.78596 9.79862C4.48423 11.1081 3.7522 12.8831 3.75 14.7343V14.7346L3.75 32.2654L3.75 32.2657C3.7522 34.1169 4.48423 35.892 5.78596 37.2014C7.08775 38.5109 8.85302 39.2478 10.6947 39.25H10.695H37.305H37.3053C39.147 39.2478 40.9123 38.5109 42.214 37.2014C43.5158 35.892 44.2478 34.1169 44.25 32.2657V32.2654V14.7346V14.7343C44.2478 12.8831 43.5158 11.1081 42.214 9.79862C40.9123 8.48913 39.147 7.75222 37.3053 7.75ZM10.6952 10.9438H37.3048C37.3048 10.9438 37.3049 10.9438 37.305 10.9438C38.3032 10.945 39.2606 11.3443 39.9669 12.0548C40.6733 12.7655 41.0709 13.7292 41.072 14.7348V16.2512H6.92799L6.92799 14.7348C6.92799 14.7348 6.92799 14.7347 6.92799 14.7346C6.92799 14.7346 6.92799 14.7346 6.92799 14.7346C6.92912 13.7291 7.32671 12.7654 8.03308 12.0548C8.7394 11.3444 9.69673 10.945 10.695 10.9438C10.6951 10.9438 10.6951 10.9438 10.6952 10.9438ZM37.3048 36.0562H10.6952C9.6969 36.0551 8.73946 35.6557 8.03308 34.9452C7.32671 34.2346 6.92912 33.2709 6.92799 32.2654C6.92799 32.2653 6.92799 32.2653 6.92799 32.2652L6.92799 19.445H41.072V32.2652C41.0709 33.2708 40.6733 34.2346 39.9669 34.9452C39.2605 35.6557 38.3031 36.0551 37.3048 36.0562ZM37.4471 31.1356C37.745 30.836 37.912 30.43 37.912 30.0069C37.912 29.5839 37.745 29.1779 37.4471 28.8783C37.1493 28.5786 36.7449 28.41 36.323 28.41H33.1126C32.6907 28.41 32.2864 28.5786 31.9885 28.8783C31.6907 29.1779 31.5237 29.5839 31.5237 30.0069C31.5237 30.43 31.6907 30.836 31.9885 31.1356C32.2864 31.4352 32.6907 31.6038 33.1126 31.6038H36.323C36.7449 31.6038 37.1492 31.4352 37.4471 31.1356Z" fill="white" stroke="white" stroke-width="0.5"/>
</g>
<defs>
<clipPath id="clip0_3_1515">
<rect width="48" height="48" fill="white"/>
</clipPath>
</defs>
</svg>
