<svg width="28" height="28" viewBox="0 0 28 28" fill="none" xmlns="http://www.w3.org/2000/svg">
<g clip-path="url(#clip0_3_246)">
<path d="M27.5299 13.71C27.5299 6.13818 21.3917 0 13.8199 0C6.24804 0 0.109863 6.13818 0.109863 13.71C0.109863 21.2818 6.24804 27.42 13.8199 27.42C21.3917 27.42 27.5299 21.2818 27.5299 13.71Z" fill="#1DAD66"/>
<path fill-rule="evenodd" clip-rule="evenodd" d="M21.2026 7.9598C21.6024 8.32312 21.6436 8.95378 21.294 9.36965L12.8578 19.3665C12.7767 19.4644 12.6767 19.5449 12.5638 19.6031C12.4508 19.6613 12.3272 19.6959 12.2004 19.705C12.0737 19.7141 11.9464 19.6974 11.8263 19.6559C11.7062 19.6144 11.5957 19.549 11.5016 19.4636L6.44033 14.9199C6.24654 14.7421 6.12841 14.4967 6.11034 14.2344C6.09227 13.972 6.17563 13.7127 6.34322 13.5101C6.42392 13.4113 6.52386 13.33 6.63698 13.2711C6.75009 13.2122 6.874 13.1769 7.00118 13.1674C7.12836 13.1579 7.25614 13.1743 7.37676 13.2158C7.49737 13.2572 7.6083 13.3227 7.70279 13.4084L12.0386 17.302L19.8419 8.05349C19.9231 7.9553 20.0235 7.87466 20.1369 7.81647C20.2503 7.75828 20.3744 7.72376 20.5015 7.71499C20.6287 7.70623 20.7563 7.72341 20.8766 7.7655C20.997 7.80758 21.1086 7.87369 21.2026 7.9598Z" fill="white"/>
</g>
<defs>
<clipPath id="clip0_3_246">
<rect width="27.42" height="27.42" fill="white" transform="translate(0.109863)"/>
</clipPath>
</defs>
</svg>
