<svg width="28" height="28" viewBox="0 0 28 28" fill="none" xmlns="http://www.w3.org/2000/svg">
<g clip-path="url(#clip0_3_1148)">
<path d="M27.5299 13.71C27.5299 6.13818 21.3917 0 13.8199 0C6.24804 0 0.109863 6.13818 0.109863 13.71C0.109863 21.2818 6.24804 27.42 13.8199 27.42C21.3917 27.42 27.5299 21.2818 27.5299 13.71Z" fill="#1DAD66"/>
<path fill-rule="evenodd" clip-rule="evenodd" d="M21.2027 7.9598C21.6026 8.32312 21.6437 8.95378 21.2941 9.36965L12.8579 19.3665C12.7769 19.4644 12.6769 19.5449 12.5639 19.6031C12.4509 19.6613 12.3273 19.6959 12.2006 19.705C12.0738 19.7141 11.9465 19.6974 11.8264 19.6559C11.7063 19.6144 11.5959 19.549 11.5017 19.4636L6.44045 14.9199C6.24666 14.7421 6.12853 14.4967 6.11046 14.2344C6.09239 13.972 6.17575 13.7127 6.34334 13.5101C6.42404 13.4113 6.52399 13.33 6.6371 13.2711C6.75021 13.2122 6.87412 13.1769 7.0013 13.1674C7.12848 13.1579 7.25626 13.1743 7.37688 13.2158C7.49749 13.2572 7.60842 13.3227 7.70291 13.4084L12.0387 17.302L19.842 8.05349C19.9233 7.9553 20.0236 7.87466 20.137 7.81647C20.2505 7.75828 20.3745 7.72376 20.5017 7.71499C20.6288 7.70623 20.7564 7.72341 20.8768 7.7655C20.9971 7.80758 21.1087 7.87369 21.2027 7.9598Z" fill="white"/>
</g>
<defs>
<clipPath id="clip0_3_1148">
<rect width="27.42" height="27.42" fill="white" transform="translate(0.109863)"/>
</clipPath>
</defs>
</svg>
