<svg width="28" height="28" viewBox="0 0 28 28" fill="none" xmlns="http://www.w3.org/2000/svg">
<g clip-path="url(#clip0_3_656)">
<path d="M27.5294 13.71C27.5294 6.13818 21.3912 0 13.8194 0C6.24755 0 0.109375 6.13818 0.109375 13.71C0.109375 21.2818 6.24755 27.42 13.8194 27.42C21.3912 27.42 27.5294 21.2818 27.5294 13.71Z" fill="#1DAD66"/>
<path fill-rule="evenodd" clip-rule="evenodd" d="M21.2021 7.9598C21.602 8.32312 21.6431 8.95378 21.2935 9.36965L12.8573 19.3665C12.7763 19.4644 12.6762 19.5449 12.5633 19.6031C12.4503 19.6613 12.3267 19.6959 12.2 19.705C12.0732 19.7141 11.9459 19.6974 11.8258 19.6559C11.7057 19.6144 11.5952 19.549 11.5011 19.4636L6.43984 14.9199C6.24605 14.7421 6.12792 14.4967 6.10985 14.2344C6.09178 13.972 6.17514 13.7127 6.34273 13.5101C6.42343 13.4113 6.52337 13.33 6.63649 13.2711C6.7496 13.2122 6.87351 13.1769 7.00069 13.1674C7.12787 13.1579 7.25565 13.1743 7.37627 13.2158C7.49688 13.2572 7.60781 13.3227 7.7023 13.4084L12.0381 17.302L19.8414 8.05349C19.9226 7.9553 20.023 7.87466 20.1364 7.81647C20.2498 7.75828 20.3739 7.72376 20.5011 7.71499C20.6282 7.70623 20.7558 7.72341 20.8761 7.7655C20.9965 7.80758 21.1081 7.87369 21.2021 7.9598Z" fill="white"/>
</g>
<defs>
<clipPath id="clip0_3_656">
<rect width="27.42" height="27.42" fill="white" transform="translate(0.109375)"/>
</clipPath>
</defs>
</svg>
