<svg width="48" height="48" viewBox="0 0 48 48" fill="none" xmlns="http://www.w3.org/2000/svg">
<g clip-path="url(#clip0_3_476)">
<path opacity="0.24" d="M47.06 17.6204L44.613 14.3574L43.253 23.8834C43.1257 24.7613 42.7189 25.5749 42.093 26.2034L25.334 42.9604C24.6161 43.6817 23.7624 44.2535 22.8221 44.6427C21.8818 45.0318 20.8736 45.2305 19.856 45.2274C19.2454 45.2271 18.6369 45.1553 18.043 45.0134C18.4955 45.724 19.1199 46.309 19.8583 46.7145C20.5968 47.12 21.4255 47.3329 22.268 47.3334H42.32C43.6488 47.3318 44.9228 46.8033 45.8626 45.8637C46.8023 44.9242 47.3311 43.6503 47.333 42.3214V18.4404C47.333 18.1434 47.237 17.8564 47.06 17.6194V17.6204Z" fill="#00C696"/>
<path d="M28.8799 23.3805C29.2425 23.3805 29.5902 23.2365 29.8466 22.9801C30.1029 22.7237 30.2469 22.376 30.2469 22.0135C30.2469 21.6509 30.1029 21.3032 29.8466 21.0469C29.5902 20.7905 29.2425 20.6465 28.8799 20.6465C28.5174 20.6465 28.1697 20.7905 27.9133 21.0469C27.657 21.3032 27.5129 21.6509 27.5129 22.0135C27.5129 22.376 27.657 22.7237 27.9133 22.9801C28.1697 23.2365 28.5174 23.3805 28.8799 23.3805ZM13.4109 23.3805C13.7735 23.3805 14.1212 23.2365 14.3776 22.9801C14.6339 22.7237 14.7779 22.376 14.7779 22.0135C14.7779 21.6509 14.6339 21.3032 14.3776 21.0469C14.1212 20.7905 13.7735 20.6465 13.4109 20.6465C13.0484 20.6465 12.7007 20.7905 12.4443 21.0469C12.188 21.3032 12.0439 21.6509 12.0439 22.0135C12.0439 22.376 12.188 22.7237 12.4443 22.9801C12.7007 23.2365 13.0484 23.3805 13.4109 23.3805Z" fill="#00C696"/>
<path d="M23.4011 41.0266L40.1581 24.2706C40.3681 24.0606 40.5031 23.7906 40.5451 23.4976L42.4801 9.9606C42.51 9.75047 42.4907 9.53625 42.4235 9.33491C42.3563 9.13357 42.2432 8.95063 42.0931 8.8006L39.1931 5.9006L35.3261 9.7676L36.2931 10.7346C36.5494 10.9911 36.6933 11.3388 36.6932 11.7015C36.6932 12.0641 36.549 12.4118 36.2926 12.6681C36.0361 12.9244 35.6883 13.0684 35.3257 13.0683C34.9631 13.0682 34.6154 12.9241 34.3591 12.6676L30.4921 8.8006C30.2357 8.54413 30.0918 8.19635 30.0919 7.83374C30.092 7.47114 30.2361 7.12343 30.4926 6.8671C30.749 6.61077 31.0968 6.46681 31.4594 6.46691C31.822 6.467 32.1697 6.61113 32.4261 6.8676L33.3921 7.8336L37.2591 3.9666L34.3591 1.0666C34.2089 0.916592 34.026 0.803544 33.8247 0.73638C33.6234 0.669217 33.4092 0.649778 33.1991 0.679598L19.6631 2.6146C19.3704 2.65631 19.0992 2.79174 18.8901 3.0006L2.13306 19.7586C1.19424 20.6995 0.666992 21.9744 0.666992 23.3036C0.666992 24.6328 1.19424 25.9077 2.13306 26.8486L16.3121 41.0266C16.7773 41.4924 17.3299 41.8617 17.9383 42.1133C18.5466 42.3649 19.1987 42.4938 19.8571 42.4926C20.5152 42.4937 21.1671 42.3647 21.7753 42.1131C22.3835 41.8616 22.936 41.4923 23.4011 41.0266ZM28.8801 17.9126C29.9673 17.9139 31.0096 18.3464 31.7784 19.1152C32.5472 19.884 32.9797 20.9264 32.9811 22.0136C32.98 23.101 32.5476 24.1436 31.7788 24.9126C31.01 25.6816 29.9675 26.1143 28.8801 26.1156C27.7925 26.1145 26.7497 25.682 25.9807 24.913C25.2116 24.1439 24.7791 23.1012 24.7781 22.0136C24.7794 20.9262 25.212 19.8837 25.981 19.1149C26.75 18.346 27.7926 17.9137 28.8801 17.9126ZM13.4121 26.1156C12.3245 26.1145 11.2817 25.682 10.5127 24.913C9.74363 24.1439 9.31112 23.1012 9.31006 22.0136C9.31138 20.9262 9.74401 19.8837 10.513 19.1149C11.282 18.346 12.3246 17.9137 13.4121 17.9126C14.4993 17.9139 15.5416 18.3464 16.3104 19.1152C17.0792 19.884 17.5117 20.9264 17.5131 22.0136C17.512 23.101 17.0796 24.1436 16.3108 24.9126C15.542 25.6816 14.4995 26.1143 13.4121 26.1156ZM17.9231 33.0486C17.7064 33.0487 17.4927 32.9972 17.2998 32.8985C17.1069 32.7997 16.9403 32.6566 16.8136 32.4807C16.6869 32.3049 16.6038 32.1015 16.5712 31.8873C16.5386 31.6731 16.5574 31.4541 16.6261 31.2486L23.0711 11.9146C23.1856 11.5706 23.4322 11.2862 23.7564 11.124C24.0807 10.9618 24.4561 10.935 24.8001 11.0496C25.144 11.1642 25.4284 11.4107 25.5906 11.735C25.7529 12.0592 25.7796 12.4346 25.6651 12.7786L19.2201 32.1136C19.1292 32.3858 18.9551 32.6225 18.7224 32.7903C18.4896 32.9581 18.21 33.0485 17.9231 33.0486Z" fill="#00C696"/>
<path d="M42.0928 2.99971C42.2197 2.87272 42.3204 2.72197 42.389 2.55608C42.4577 2.39019 42.493 2.2124 42.493 2.03285C42.4929 1.85331 42.4575 1.67554 42.3888 1.50968C42.32 1.34382 42.2193 1.19313 42.0923 1.06621C41.9653 0.939284 41.8146 0.838616 41.6487 0.769952C41.4828 0.701287 41.305 0.665969 41.1254 0.666016C40.9459 0.666062 40.7681 0.701472 40.6023 0.770222C40.4364 0.838973 40.2857 0.939718 40.1588 1.06671L37.2588 3.96671L39.1918 5.90071L42.0918 3.00071L42.0928 2.99971Z" fill="#00C696"/>
</g>
<defs>
<clipPath id="clip0_3_476">
<rect width="48" height="48" fill="white"/>
</clipPath>
</defs>
</svg>
