<svg width="29" height="28" viewBox="0 0 29 28" fill="none" xmlns="http://www.w3.org/2000/svg">
<g clip-path="url(#clip0_3_644)">
<path d="M28.17 13.71C28.17 6.13818 22.0318 0 14.46 0C6.88818 0 0.75 6.13818 0.75 13.71C0.75 21.2818 6.88818 27.42 14.46 27.42C22.0318 27.42 28.17 21.2818 28.17 13.71Z" fill="#1DAD66"/>
<path fill-rule="evenodd" clip-rule="evenodd" d="M21.8427 7.9598C22.2426 8.32312 22.2837 8.95378 21.9341 9.36965L13.4979 19.3665C13.4169 19.4644 13.3169 19.5449 13.2039 19.6031C13.0909 19.6613 12.9673 19.6959 12.8406 19.705C12.7138 19.7141 12.5866 19.6974 12.4664 19.6559C12.3463 19.6144 12.2359 19.549 12.1417 19.4636L7.08047 14.9199C6.88667 14.7421 6.76855 14.4967 6.75047 14.2344C6.7324 13.972 6.81577 13.7127 6.98335 13.5101C7.06405 13.4113 7.164 13.33 7.27711 13.2711C7.39022 13.2122 7.51414 13.1769 7.64132 13.1674C7.76849 13.1579 7.89628 13.1743 8.01689 13.2158C8.13751 13.2572 8.24844 13.3227 8.34293 13.4084L12.6787 17.302L20.482 8.05349C20.5633 7.9553 20.6637 7.87466 20.7771 7.81647C20.8905 7.75828 21.0145 7.72376 21.1417 7.71499C21.2688 7.70623 21.3965 7.72341 21.5168 7.7655C21.6371 7.80758 21.7487 7.87369 21.8427 7.9598Z" fill="white"/>
</g>
<defs>
<clipPath id="clip0_3_644">
<rect width="27.42" height="27.42" fill="white" transform="translate(0.75)"/>
</clipPath>
</defs>
</svg>
