<svg width="29" height="28" viewBox="0 0 29 28" fill="none" xmlns="http://www.w3.org/2000/svg">
<g clip-path="url(#clip0_3_1136)">
<path d="M28.17 13.71C28.17 6.13818 22.0318 0 14.46 0C6.88818 0 0.75 6.13818 0.75 13.71C0.75 21.2818 6.88818 27.42 14.46 27.42C22.0318 27.42 28.17 21.2818 28.17 13.71Z" fill="#1DAD66"/>
<path fill-rule="evenodd" clip-rule="evenodd" d="M21.843 7.9598C22.2428 8.32312 22.284 8.95378 21.9344 9.36965L13.4981 19.3665C13.4171 19.4644 13.3171 19.5449 13.2041 19.6031C13.0912 19.6613 12.9676 19.6959 12.8408 19.705C12.7141 19.7141 12.5868 19.6974 12.4667 19.6559C12.3466 19.6144 12.2361 19.549 12.142 19.4636L7.08071 14.9199C6.88692 14.7421 6.76879 14.4967 6.75072 14.2344C6.73265 13.972 6.81601 13.7127 6.9836 13.5101C7.0643 13.4113 7.16424 13.33 7.27736 13.2711C7.39047 13.2122 7.51438 13.1769 7.64156 13.1674C7.76874 13.1579 7.89652 13.1743 8.01714 13.2158C8.13775 13.2572 8.24868 13.3227 8.34317 13.4084L12.679 17.302L20.4822 8.05349C20.5635 7.9553 20.6639 7.87466 20.7773 7.81647C20.8907 7.75828 21.0148 7.72376 21.1419 7.71499C21.2691 7.70623 21.3967 7.72341 21.517 7.7655C21.6373 7.80758 21.749 7.87369 21.843 7.9598Z" fill="white"/>
</g>
<defs>
<clipPath id="clip0_3_1136">
<rect width="27.42" height="27.42" fill="white" transform="translate(0.75)"/>
</clipPath>
</defs>
</svg>
