<svg width="28" height="28" viewBox="0 0 28 28" fill="none" xmlns="http://www.w3.org/2000/svg">
<g clip-path="url(#clip0_3_1142)">
<path d="M27.5001 13.71C27.5001 6.13818 21.3619 0 13.7901 0C6.21825 0 0.0800781 6.13818 0.0800781 13.71C0.0800781 21.2818 6.21825 27.42 13.7901 27.42C21.3619 27.42 27.5001 21.2818 27.5001 13.71Z" fill="#1DAD66"/>
<path fill-rule="evenodd" clip-rule="evenodd" d="M21.173 7.9598C21.5729 8.32312 21.614 8.95378 21.2644 9.36965L12.8282 19.3665C12.7472 19.4644 12.6472 19.5449 12.5342 19.6031C12.4212 19.6613 12.2976 19.6959 12.1709 19.705C12.0441 19.7141 11.9169 19.6974 11.7968 19.6559C11.6766 19.6144 11.5662 19.549 11.4721 19.4636L6.41079 14.9199C6.217 14.7421 6.09887 14.4967 6.0808 14.2344C6.06272 13.972 6.14609 13.7127 6.31368 13.5101C6.39438 13.4113 6.49432 13.33 6.60743 13.2711C6.72055 13.2122 6.84446 13.1769 6.97164 13.1674C7.09882 13.1579 7.2266 13.1743 7.34722 13.2158C7.46783 13.2572 7.57876 13.3227 7.67325 13.4084L12.009 17.302L19.8123 8.05349C19.8936 7.9553 19.994 7.87466 20.1074 7.81647C20.2208 7.75828 20.3448 7.72376 20.472 7.71499C20.5992 7.70623 20.7268 7.72341 20.8471 7.7655C20.9674 7.80758 21.0791 7.87369 21.173 7.9598Z" fill="white"/>
</g>
<defs>
<clipPath id="clip0_3_1142">
<rect width="27.42" height="27.42" fill="white" transform="translate(0.0800781)"/>
</clipPath>
</defs>
</svg>
