<svg width="9" height="15" viewBox="0 0 9 15" fill="none" xmlns="http://www.w3.org/2000/svg">
<path d="M5.455 7.76635C5.31918 7.88761 5.23374 7.96677 5.14516 8.04236C3.63042 9.33286 2.11066 10.6175 0.6019 11.9151C-0.210016 12.6135 -0.0434452 13.8581 0.909993 14.2688C1.40099 14.4802 1.88607 14.4329 2.2983 14.0843C4.29366 12.3961 6.28603 10.7042 8.26644 8.99821C8.84445 8.50034 8.90745 7.69143 8.42212 7.09893C6.75457 5.06314 5.07791 3.03509 3.39156 1.01529C2.88791 0.412429 2.0442 0.376117 1.46918 0.88726C0.904103 1.38978 0.841746 2.2292 1.34626 2.84418C2.61865 4.39502 3.89992 5.93831 5.17924 7.48336C5.25474 7.57449 5.34433 7.65347 5.455 7.76635Z" fill="white"/>
</svg>
