<svg width="19" height="15" viewBox="0 0 19 15" fill="none" xmlns="http://www.w3.org/2000/svg">
<path d="M6.94232 15C6.77991 14.9995 6.61934 14.9638 6.47059 14.8952C6.32184 14.8267 6.18809 14.7267 6.07765 14.6015L0.321068 8.16249C0.10588 7.92136 -0.00939616 7.60022 0.00059984 7.26973C0.0105958 6.93923 0.145045 6.62644 0.37437 6.40018C0.603695 6.17391 0.909111 6.05271 1.22343 6.06322C1.53775 6.07373 1.83522 6.2151 2.05041 6.45622L6.93048 11.9237L16.892 0.465618C16.9931 0.333255 17.1188 0.224019 17.2615 0.14462C17.4042 0.0652215 17.5609 0.0173358 17.7218 0.0039044C17.8827 -0.00952695 18.0446 0.0117798 18.1974 0.0665156C18.3503 0.121251 18.4908 0.20826 18.6105 0.322199C18.7302 0.436138 18.8265 0.574601 18.8934 0.729083C18.9603 0.883566 18.9965 1.05081 18.9998 1.22053C19.003 1.39026 18.9732 1.55889 18.9122 1.71606C18.8512 1.87324 18.7603 2.01564 18.645 2.13452L7.81884 14.589C7.70944 14.7165 7.57616 14.8188 7.42736 14.8895C7.27856 14.9603 7.11745 14.9979 6.95417 15H6.94232Z" fill="white"/>
</svg>
