<svg width="10" height="15" viewBox="0 0 10 15" fill="none" xmlns="http://www.w3.org/2000/svg">
<path d="M3.62899 7.23365C3.7648 7.11239 3.85025 7.03323 3.93882 6.95764C5.45357 5.66714 6.97332 4.38251 8.48209 3.08488C9.294 2.38654 9.12743 1.14195 8.17399 0.731239C7.683 0.519766 7.19792 0.567119 6.78569 0.915731C4.79032 2.60389 2.79796 4.29581 0.817546 6.00179C0.239534 6.49966 0.176533 7.30857 0.66186 7.90107C2.32942 9.93686 4.00607 11.9649 5.69243 13.9847C6.19607 14.5876 7.03978 14.6239 7.6148 14.1127C8.17988 13.6102 8.24224 12.7708 7.73772 12.1558C6.46533 10.605 5.18407 9.06169 3.90475 7.51664C3.82925 7.42551 3.73965 7.34653 3.62899 7.23365Z" fill="white"/>
</svg>
