<svg width="21" height="20" viewBox="0 0 21 20" fill="none" xmlns="http://www.w3.org/2000/svg">
<path d="M7.21 5.70501L9.5 3.40501V12.995C9.5 13.2602 9.60536 13.5146 9.79289 13.7021C9.98043 13.8897 10.2348 13.995 10.5 13.995C10.7652 13.995 11.0196 13.8897 11.2071 13.7021C11.3946 13.5146 11.5 13.2602 11.5 12.995V3.40501L13.79 5.70501C13.883 5.79874 13.9936 5.87314 14.1154 5.9239C14.2373 5.97467 14.368 6.00081 14.5 6.00081C14.632 6.00081 14.7627 5.97467 14.8846 5.9239C15.0064 5.87314 15.117 5.79874 15.21 5.70501C15.3037 5.61205 15.3781 5.50145 15.4289 5.37959C15.4797 5.25773 15.5058 5.12703 15.5058 4.99501C15.5058 4.863 15.4797 4.7323 15.4289 4.61044C15.3781 4.48858 15.3037 4.37798 15.21 4.28501L11.21 0.285014C11.1149 0.193973 11.0028 0.122608 10.88 0.0750135C10.6365 -0.0250045 10.3635 -0.0250045 10.12 0.0750135C9.99725 0.122608 9.8851 0.193973 9.79 0.285014L5.79 4.28501C5.69676 4.37825 5.6228 4.48894 5.57234 4.61076C5.52188 4.73259 5.49591 4.86315 5.49591 4.99501C5.49591 5.12687 5.52188 5.25744 5.57234 5.37926C5.6228 5.50108 5.69676 5.61178 5.79 5.70501C5.88324 5.79825 5.99393 5.87221 6.11575 5.92267C6.23757 5.97313 6.36814 5.9991 6.5 5.9991C6.63186 5.9991 6.76243 5.97313 6.88425 5.92267C7.00607 5.87221 7.11676 5.79825 7.21 5.70501ZM19.5 11.995C19.2348 11.995 18.9804 12.1004 18.7929 12.2879C18.6054 12.4754 18.5 12.7298 18.5 12.995V16.995C18.5 17.2602 18.3946 17.5146 18.2071 17.7021C18.0196 17.8897 17.7652 17.995 17.5 17.995H3.5C3.23478 17.995 2.98043 17.8897 2.79289 17.7021C2.60536 17.5146 2.5 17.2602 2.5 16.995V12.995C2.5 12.7298 2.39464 12.4754 2.20711 12.2879C2.01957 12.1004 1.76522 11.995 1.5 11.995C1.23478 11.995 0.98043 12.1004 0.792893 12.2879C0.605357 12.4754 0.5 12.7298 0.5 12.995V16.995C0.5 17.7907 0.816071 18.5537 1.37868 19.1163C1.94129 19.6789 2.70435 19.995 3.5 19.995H17.5C18.2956 19.995 19.0587 19.6789 19.6213 19.1163C20.1839 18.5537 20.5 17.7907 20.5 16.995V12.995C20.5 12.7298 20.3946 12.4754 20.2071 12.2879C20.0196 12.1004 19.7652 11.995 19.5 11.995Z" fill="#2D49E4"/>
</svg>
