<svg width="9" height="15" viewBox="0 0 9 15" fill="none" xmlns="http://www.w3.org/2000/svg">
<path d="M5.45451 7.76635C5.31869 7.88761 5.23325 7.96677 5.14467 8.04236C3.62993 9.33286 2.11017 10.6175 0.601411 11.9151C-0.210504 12.6135 -0.0439334 13.8581 0.909505 14.2688C1.4005 14.4802 1.88558 14.4329 2.29781 14.0843C4.29317 12.3961 6.28554 10.7042 8.26595 8.99821C8.84396 8.50034 8.90696 7.69143 8.42164 7.09893C6.75408 5.06314 5.07743 3.03509 3.39107 1.01529C2.88742 0.412429 2.04371 0.376117 1.46869 0.88726C0.903615 1.38978 0.841258 2.2292 1.34577 2.84418C2.61817 4.39502 3.89943 5.93831 5.17875 7.48336C5.25425 7.57449 5.34384 7.65347 5.45451 7.76635Z" fill="white"/>
</svg>
